<svg xmlns="http://www.w3.org/2000/svg" xmlns:xlink="http://www.w3.org/1999/xlink" width="220" height="248" viewBox="0 0 220 248">
    <defs>
        <path id="a" d="M.161 0h61.86v35.988H.16z"/>
        <path id="c" d="M.73.892h199.041v100.841H.73z"/>
        <path id="e" d="M.06.145h101.653v109.8H.06z"/>
    </defs>
    <g fill="none" fill-rule="evenodd">
        <g transform="translate(80)">
            <mask id="b" fill="#fff">
                <use xlink:href="#a"/>
            </mask>
            <path fill="#77648D" d="M62.01 27.134C62.448 17.308 49.312.787 32.237.027 15.16-.735.607 14.555.171 24.38c-.436 9.825 13.406 10.47 30.481 11.23 17.077.759 30.922 1.349 31.358-8.476" mask="url(#b)"/>
        </g>
        <path fill="#6B5B7F" d="M183.969 51.383c-.831 15.102-34.376 25.534-74.922 23.299-40.547-2.232-72.74-16.288-71.909-31.39.831-15.105 34.375-25.538 74.922-23.304 40.546 2.236 72.742 16.29 71.909 31.395"/>
        <path fill="#431F18" d="M83.4 24.689c-1.68 4.944-2.159 10.384-1.535 15.926 4.687 41.579 43.381 57.931 43.381 57.931 10.099 4.981 54.442 42.226 56.175 39.953 11.887-15.581 11.814-35.167-1.628-52.496-13.392-17.263-25.49-14.861-35.05-21.422-9.123-6.255 12.584-16.765 7.9-26.014-1.783-3.519-4.423-4.617-6.923-9.119"/>
        <path fill="#B68C5A" d="M126.964 96.171s18.356 5.373 31.557 12.542c19.187 10.417 50.863 42.281 50.863 42.281l-25.259 24.817-22.361-19.228L167.865 248H51.772l11.444-107.942-41.039 2.974 4.162-31.731 68.546-11.974 32.079-3.156"/>
        <path fill="#ED9E8B" d="M94.215 81.983l-1.719 24.087s7.924 11.357 23.233 6.869c8.011-2.349 11.208-8.587 11.235-16.768l-.25-22.544-32.499 8.356"/>
        <path fill="#DD8677" d="M94.215 81.983l-1.624 22.806 29.412-21.746-27.788-1.06"/>
        <path fill="#ED9E8B" d="M85.112 25.438c-1.74 3.003-1.803 3.206-2.393 7.246-3.438 23.396 1.094 51.578 11.694 56.374 7.586 3.278 47.688-10.978 51.802-23.733 6.412-19.877 4.997-28.242-3.034-37.033"/>
        <path fill="#DD8677" d="M94.276 66.635a.91.91 0 0 1-.717-.931l.844-15.202a.903.903 0 0 1 .95-.849c.515.028.873.45.853.946l-.844 15.203a.9.9 0 0 1-1.086.833"/>
        <path fill="#431F18" d="M87.823 51.901c-.005-1.166.752-2.175 1.69-2.246.944-.07 1.705.814 1.725 1.981.009 1.163-.756 2.165-1.689 2.246-.943.073-1.703-.815-1.726-1.981M103.445 52.079c-.132-1.157.515-2.241 1.437-2.409.931-.17 1.783.63 1.926 1.791.129 1.151-.525 2.229-1.447 2.406-.928.172-1.779-.629-1.916-1.788"/>
        <path fill="#DD8677" d="M92.514 70.752l.005-.012a.913.913 0 0 1 1.071-.727l9.072 1.798c.497.091.887.499.729 1.072a.913.913 0 0 1-1.077.724l-9.068-1.792a.918.918 0 0 1-.732-1.063"/>
        <path fill="#431F18" d="M146.637 28.648c6.299 14.341 12.207 20.134 11.015 29.919-1.249 10.225-30.688 37.604-30.688 37.604l-.377-34.291s6.322-3.075 5.064-10.111c-1.254-7.035-9.959-2.123-9.959-2.123s-26.807-2.478-36.255-15.77c-4.984 7.458-3.041 6.083-3.667 8.128-.455 1.48-1.992-5.457 2.341-15.485"/>
        <path fill="#A6784B" d="M77.222 248h90.643l-2.28-46.85-3.821-44.567c-18.215-1.546-20.445 83.381-84.542 91.417"/>
        <g transform="translate(20 126)">
            <mask id="d" fill="#fff">
                <use xlink:href="#c"/>
            </mask>
            <path fill="#A6784B" d="M.73 16.945l42.486-2.887L46.039.892C25.93 6.882 17.806 11.663.73 16.945" mask="url(#d)"/>
            <path fill="#B68C5A" d="M135.819 82.885l33.234-41.344L186 21.66s14.333 12.738 13.754 21.427c-.579 8.69-1.342 13.25-8.681 21.194-7.339 7.944-31.389 37.452-31.389 37.452l-23.865-18.848" mask="url(#d)"/>
        </g>
        <path fill="#ED9E8B" d="M154.505 222.422s-16.817 3.842-17.314 1.344c-.499-2.495.359-4.235 2.859-5.525 1.231-.63 16.853-8.498 16.853-8.498l21.757 17.179-.788 6.85L175.358 248h-7.493s-5.261-22.645-13.36-25.578"/>
        <path fill="#6B5B7F" d="M80.637 36.393s37.487-5.782 50.594 5.79c12.159 10.74-.025 19.062 21.387 26.176 18.033 5.99 14.437-18.707 14.437-18.707L145.77 27.253l-65.133-2.935v12.075"/>
        <path fill="#DD8677" d="M45.308 55.425c2.248-1.415 4.536-2.152 5.903-2.803 2.739-1.308 13.47-2.764 20.225-3.515a869.777 869.777 0 0 0 13.771-2.31s2.525-.84 2.103-4.206c-.327-2.612-5.048-3.05-6.78-3.153-1.26-.077-24.078 1.151-36.478 1.829"/>
        <g transform="translate(0 33)">
            <mask id="f" fill="#fff">
                <use xlink:href="#e"/>
            </mask>
            <path fill="#ED9E8B" d="M101.665 3.303C101.338.695 96.62.255 94.885.148 93.15.046 50.53 2.413 50.53 2.413s-7.797 1.586-10.835 7.469c-3.47 6.708-5.915 11.648-10.881 21.643-3.383 6.824-4.094 10.041-4.094 10.041l19.271 8.593S52.708 26.596 54 23.002c2.418-6.717 8.828-8.363 11.566-9.67 2.741-1.306 13.465-2.761 20.227-3.513a877.706 877.706 0 0 0 13.769-2.311s2.525-.84 2.103-4.205" mask="url(#f)"/>
            <path fill="#B68C5A" d="M50.837 37.661l-22.616 71.56s-20.442 4.37-25.685-8.372C-2.148 89.475.767 84.866 2.493 80.03c1.728-4.839 25.608-50.385 25.608-50.385l22.736 8.016" mask="url(#f)"/>
        </g>
    </g>
</svg>
